<?xml version="1.0" encoding="iso-8859-1"?>
<!-- Generator: Adobe Illustrator 19.0.0, SVG Export Plug-In . SVG Version: 6.00 Build 0)  -->
<svg version="1.1" id="Capa_1" xmlns="http://www.w3.org/2000/svg" xmlns:xlink="http://www.w3.org/1999/xlink" x="0px" y="0px"
	 viewBox="0 0 512 512" style="enable-background:new 0 0 512 512;" xml:space="preserve">
<path style="fill:#A8AFF1;" d="M496.985,0h-60c-7.408,0-13.707,5.408-14.827,12.731L414.925,60H15.015
	c-4.374,0-8.529,1.909-11.379,5.227c-2.85,3.318-4.109,7.714-3.449,12.038l27.556,180.441c0.05,1.077,0.212,2.123,0.478,3.129
	l13.505,88.429C42.845,356.589,49.144,362,56.554,362h312.164l-2.644,17.281c-1.135,7.37-7.369,12.719-14.826,12.719H66.985
	c-8.284,0-15,6.716-15,15s6.716,15,15,15h284.263c22.369,0,41.075-16.047,44.479-38.169l5.156-33.695
	c0.119-0.559,0.207-1.13,0.262-1.71l13.397-87.56c0.272-1.022,0.437-2.086,0.487-3.182L449.865,30h47.12c8.284,0,15-6.716,15-15
	S505.269,0,496.985,0z M171.985,242v-62h100v62H171.985z M271.985,272v60h-100v-60H271.985z M46.225,180h95.76v62H55.693L46.225,180
	z M171.985,150V90h100v60H171.985z M301.985,180h94.58l-9.486,62h-85.094L301.985,180L301.985,180z M401.155,150h-99.17V90h108.35
	L401.155,150z M141.985,90v60H41.643L32.48,90H141.985z M60.274,272h81.71v60H69.437L60.274,272z M301.985,332v-60h80.503l-9.18,60
	H301.985z"/>
<g>
	<path style="fill:#08469C;" d="M111.985,512c-33.084,0-60-26.916-60-60s26.916-60,60-60s60,26.916,60,60S145.069,512,111.985,512z
		 M111.985,422c-16.542,0-30,13.458-30,30s13.458,30,30,30s30-13.458,30-30S128.527,422,111.985,422z"/>
	<path style="fill:#08469C;" d="M301.985,512c-33.084,0-60-26.916-60-60s26.916-60,60-60s60,26.916,60,60S335.069,512,301.985,512z
		 M301.985,422c-16.542,0-30,13.458-30,30s13.458,30,30,30s30-13.458,30-30S318.527,422,301.985,422z"/>
</g>
<g>
</g>
<g>
</g>
<g>
</g>
<g>
</g>
<g>
</g>
<g>
</g>
<g>
</g>
<g>
</g>
<g>
</g>
<g>
</g>
<g>
</g>
<g>
</g>
<g>
</g>
<g>
</g>
<g>
</g>
</svg>
